PathFileType	4	(X/Y/Z)	/Users/itak/Documents/Research/Walk-IL/dataset/trc/00008_00004.trc
DataRate	CameraRate	NumFrames	NumMarkers	Units	OrigDataRate	OrigDataStartFrame	OrigNumFrames
100.000000	100.000000	4	53	mm	100.000000	155	620
Frame#	Time	RPSI			LPSI			L3			STRN			T10			C7			CLAV			RBAK			LBAK			LSHO			LUPA			LAEL			LAOL			LWTS			LWPS			LFRA			LIFD			LHPS			LHTS			RSHO			RUPA			RAEL			RAOL			RWTS			RWPS			RFRA			RIFD			RHTS			RHPS			RBHD			LFHD			RFHD			LBHD			LHIP			RHIP			RASI			LASI			LKNE			LTHI			LANK			LTIP			LTOE			LMT1			LMT5			LHEE			RKNE			RTHI			RANK			RTIP			RTOE			RMT1			RMT5			RHEE			
		X1	Y1	Z1	X2	Y2	Z2	X3	Y3	Z3	X4	Y4	Z4	X5	Y5	Z5	X6	Y6	Z6	X7	Y7	Z7	X8	Y8	Z8	X9	Y9	Z9	X10	Y10	Z10	X11	Y11	Z11	X12	Y12	Z12	X13	Y13	Z13	X14	Y14	Z14	X15	Y15	Z15	X16	Y16	Z16	X17	Y17	Z17	X18	Y18	Z18	X19	Y19	Z19	X20	Y20	Z20	X21	Y21	Z21	X22	Y22	Z22	X23	Y23	Z23	X24	Y24	Z24	X25	Y25	Z25	X26	Y26	Z26	X27	Y27	Z27	X28	Y28	Z28	X29	Y29	Z29	X30	Y30	Z30	X31	Y31	Z31	X32	Y32	Z32	X33	Y33	Z33	X34	Y34	Z34	X35	Y35	Z35	X36	Y36	Z36	X37	Y37	Z37	X38	Y38	Z38	X39	Y39	Z39	X40	Y40	Z40	X41	Y41	Z41	X42	Y42	Z42	X43	Y43	Z43	X44	Y44	Z44	X45	Y45	Z45	X46	Y46	Z46	X47	Y47	Z47	X48	Y48	Z48	X49	Y49	Z49	X50	Y50	Z50	X51	Y51	Z51	X52	Y52	Z52	X53	Y53	Z53	

156	1.55	-1215.951416015625	1070.4794921875	-140.2857971191406	-1223.301879882812	1066.819702148438	-303.5512084960938	-1222.542236328125	1131.081298828125	-229.1053619384766	-996.6603393554688	1320.455932617188	-231.2147369384766	-1244.579711914062	1271.669555664062	-229.2845916748047	-1198.601440429688	1539.524169921875	-243.1966247558594	-1038.314697265625	1446.7060546875	-237.3174743652344	-1247.949584960938	1403.734252929688	-160.9889526367188	-1215.438232421875	1497.049560546875	-340.2803344726562	-1112.667846679688	1502.75732421875	-415.1668395996094	-1144.052124023438	1376.970703125	-491.1854858398438	-1147.173217773438	1158.188110351562	-512.8910522460938	-1206.30126953125	1148.483154296875	-424.8600463867188	-1060.911376953125	907.426025390625	-448.6553955078125	-1136.675048828125	891.2819213867188	-491.8818664550781	-1134.887451171875	1042.122192382812	-515.6175537109375	-1032.88330078125	725.55908203125	-423.5133361816406	-1102.826416015625	802.5276489257812	-487.9301147460938	-1036.478515625	815.6463623046875	-458.9558715820312	-1118.813110351562	1528.427978515625	-68.33852386474609	-1130.392944335938	1456.759155273438	5.591090202331543	-1164.3720703125	1187.27294921875	28.50241470336914	-1170.21875	1159.77587890625	-68.15153503417969	-1035.664184570312	928.1463623046875	-6.456757068634033	-1100.313720703125	913.4426879882812	59.08293914794922	-1150.219482421875	1111.765258789062	43.20153427124023	-1019.621459960938	743.27587890625	-23.16474151611328	-1003.143798828125	818.1227416992188	7.64360237121582	-1059.110107421875	813.2701416015625	57.23212051391602	-1131.121948242188	1722.8056640625	-163.1754302978516	-968.6278076171875	1732.840576171875	-299.0397338867188	-959.85595703125	1735.331298828125	-200.8406066894531	-1150.937744140625	1723.97021484375	-306.5283508300781	-1133.953247070312	966.320556640625	-415.3435668945312	-1103.207763671875	958.3245239257812	-42.44515991210938	-1001.534545898438	988.4066162109375	-121.7375717163086	-1012.372680664062	1007.94580078125	-354.9585876464844	-1105.612548828125	520.919189453125	-382.7729797363281	-1125.627563476562	657.7578125	-412.974609375	-1214.147583007812	41.11941909790039	-392.6815795898438	-1193.422485351562	291.7183227539062	-403.7931823730469	-994.8934326171875	41.63827133178711	-322.973876953125	-1055.39404296875	51.15953063964844	-307.9612121582031	-1088.422119140625	38.70465469360352	-409.7830810546875	-1284.234741210938	48.37815475463867	-340.3745422363281	-1113.2109375	522.517578125	-108.8348083496094	-1085.356811523438	788.1674194335938	-51.93661499023438	-1246.16357421875	45.57049179077148	-149.5628967285156	-1143.998291015625	399.1593322753906	-112.4993591308594	-1013.673034667969	45.82851409912109	-183.8664093017578	-1075.595336914062	50.94107437133789	-215.8959808349609	-1097.395629882812	45.05588150024414	-120.8988342285156	-1300.498168945312	46.27553939819336	-197.6365509033203	
157	1.56	-1215.772338867188	1070.386108398438	-140.0144500732422	-1223.071533203125	1066.74609375	-303.3024291992188	-1222.231567382812	1131.110473632812	-228.8358001708984	-996.2608642578125	1320.385986328125	-230.8264312744141	-1244.293334960938	1271.721923828125	-229.1383514404297	-1198.092895507812	1539.587890625	-243.1197509765625	-1037.92138671875	1446.637817382812	-236.9909057617188	-1247.61376953125	1403.798706054688	-160.9114532470703	-1214.836181640625	1497.028076171875	-340.2510375976562	-1112.01171875	1502.739501953125	-415.090576171875	-1143.278930664062	1376.859252929688	-491.0040283203125	-1146.354614257812	1158.10107421875	-512.6795654296875	-1205.635620117188	1148.3955078125	-424.7456359863281	-1060.210205078125	907.3668823242188	-448.3367004394531	-1135.903930664062	891.1815185546875	-491.6551208496094	-1134.08740234375	1042.022827148438	-515.3869018554688	-1032.181518554688	725.530517578125	-423.1231689453125	-1102.071655273438	802.4209594726562	-487.6633605957031	-1035.73388671875	815.5752563476562	-458.6286926269531	-1118.4755859375	1528.451171875	-68.16490936279297	-1130.248413085938	1456.8046875	5.747787952423096	-1164.319946289062	1187.342895507812	28.73307609558105	-1170.121948242188	1159.826049804688	-67.94467926025391	-1035.495483398438	928.2473754882812	-6.158818244934082	-1100.136596679688	913.5103759765625	59.38376235961914	-1150.174438476562	1111.81787109375	43.45004272460938	-1019.277404785156	743.3893432617188	-22.80265235900879	-1002.964904785156	818.2544555664062	8.007270812988281	-1058.947998046875	813.3755493164062	57.54474258422852	-1130.72900390625	1722.769897460938	-163.1949462890625	-968.0604858398438	1732.813598632812	-298.8335266113281	-959.3433227539062	1735.344482421875	-200.6367034912109	-1150.339111328125	1723.830200195312	-306.4739685058594	-1133.614624023438	966.3492431640625	-415.0765380859375	-1103.062255859375	958.206787109375	-42.11505126953125	-1001.317504882812	988.4324340820312	-121.3238754272461	-1011.913024902344	1007.950134277344	-354.5721740722656	-1104.7158203125	520.7213745117188	-382.6794128417969	-1124.956298828125	657.7969970703125	-412.794921875	-1214.177978515625	41.11663436889648	-392.7426452636719	-1193.027709960938	291.7062072753906	-403.7159118652344	-994.9586791992188	41.69887924194336	-323.0205993652344	-1055.440185546875	51.1737060546875	-307.9896850585938	-1088.434204101562	38.69967269897461	-409.7948913574219	-1284.237548828125	48.33956527709961	-340.3855590820312	-1112.719116210938	522.3806762695312	-108.7436904907227	-1085.105102539062	788.0770874023438	-51.64013290405273	-1246.165405273438	45.55925369262695	-149.5424041748047	-1143.58544921875	399.0668640136719	-112.3695526123047	-1013.691040039062	45.85843658447266	-183.8739318847656	-1075.609497070312	50.94876098632812	-215.9102020263672	-1097.404174804688	45.06687545776367	-120.9120788574219	-1300.5322265625	46.23013687133789	-197.6054229736328	
158	1.57	-1215.563842773438	1070.288208007812	-139.7096557617188	-1222.794677734375	1066.675537109375	-303.0168151855469	-1221.8974609375	1131.140991210938	-228.5368804931641	-995.8224487304688	1320.306640625	-230.3949584960938	-1243.9541015625	1271.780395507812	-228.9484558105469	-1197.521362304688	1539.638427734375	-242.9921569824219	-1037.480712890625	1446.570556640625	-236.6236724853516	-1247.229858398438	1403.87060546875	-160.7898101806641	-1214.193359375	1497.007690429688	-340.1755676269531	-1111.298095703125	1502.703857421875	-414.9529724121094	-1142.453491210938	1376.747680664062	-490.7715148925781	-1145.499755859375	1158.020751953125	-512.4380493164062	-1204.92919921875	1148.307373046875	-424.6005249023438	-1059.458374023438	907.3098754882812	-447.9976806640625	-1135.079956054688	891.0902099609375	-491.4075622558594	-1133.236450195312	1041.924926757812	-515.1345825195312	-1031.4052734375	725.4959106445312	-422.7334899902344	-1101.251098632812	802.3197631835938	-487.3790588378906	-1034.936279296875	815.4951782226562	-458.2961730957031	-1118.079467773438	1528.472778320312	-67.95352935791016	-1130.047973632812	1456.8515625	5.94651460647583	-1164.227294921875	1187.414672851562	28.9991340637207	-1169.9912109375	1159.882934570312	-67.7021484375	-1035.313232421875	928.3434448242188	-5.849546909332275	-1099.943603515625	913.5779418945312	59.7036247253418	-1150.107299804688	1111.867309570312	43.72519683837891	-1018.922485351562	743.49072265625	-22.44983863830566	-1002.7724609375	818.37841796875	8.36509895324707	-1058.77001953125	813.469970703125	57.87688446044922	-1130.26953125	1722.734252929688	-163.1686401367188	-967.4226684570312	1732.790283203125	-298.5914306640625	-958.7828369140625	1735.358032226562	-200.4045104980469	-1149.690551757812	1723.679565429688	-306.3909606933594	-1133.214111328125	966.395263671875	-414.7838439941406	-1102.880981445312	958.0759887695312	-41.73688888549805	-1001.064208984375	988.4434814453125	-120.8365936279297	-1011.420654296875	1007.965148925781	-354.1426391601562	-1103.625854492188	520.5396728515625	-382.5601501464844	-1124.125732421875	657.8423461914062	-412.5901794433594	-1214.196166992188	41.10458755493164	-392.7938232421875	-1192.50390625	291.6855773925781	-403.6248779296875	-995.0175170898438	41.75546646118164	-323.0641784667969	-1055.483276367188	51.18598556518555	-308.01318359375	-1088.445434570312	38.6959228515625	-409.8048400878906	-1284.223876953125	48.28176116943359	-340.3909912109375	-1112.233520507812	522.2362670898438	-108.6212997436523	-1084.827880859375	787.9635620117188	-51.33304214477539	-1246.171997070312	45.54219436645508	-149.5188446044922	-1143.1904296875	398.9840393066406	-112.2157821655273	-1013.710327148438	45.88737869262695	-183.8829956054688	-1075.623657226562	50.95679092407227	-215.9221649169922	-1097.413330078125	45.07677459716797	-120.923942565918	-1300.564819335938	46.19100952148438	-197.568603515625	
159	1.58	-1215.326293945312	1070.185302734375	-139.3742218017578	-1222.4697265625	1066.608764648438	-302.6964721679688	-1221.54248046875	1131.171020507812	-228.2113342285156	-995.34326171875	1320.216552734375	-229.9204711914062	-1243.558349609375	1271.844116210938	-228.7132873535156	-1196.884887695312	1539.670532226562	-242.8153381347656	-1036.989624023438	1446.504272460938	-236.2175903320312	-1246.793701171875	1403.949829101562	-160.6218872070312	-1213.509033203125	1496.98828125	-340.0470275878906	-1110.52880859375	1502.6474609375	-414.749755859375	-1141.583129882812	1376.634887695312	-490.4854125976562	-1144.622802734375	1157.947143554688	-512.16748046875	-1204.18994140625	1148.219482421875	-424.4224243164062	-1058.656372070312	907.255126953125	-447.6445922851562	-1134.208374023438	891.0089721679688	-491.1410522460938	-1132.344848632812	1041.830200195312	-514.8619995117188	-1030.556640625	725.4508666992188	-422.3515014648438	-1100.36376953125	802.2266235351562	-487.0798950195312	-1034.083374023438	815.412841796875	-457.9597473144531	-1117.623901367188	1528.492553710938	-67.70333862304688	-1129.7841796875	1456.900268554688	6.190392971038818	-1164.092529296875	1187.488525390625	29.30000686645508	-1169.821655273438	1159.946899414062	-67.42222595214844	-1035.116088867188	928.43408203125	-5.525585651397705	-1099.738037109375	913.6443481445312	60.04104232788086	-1150.018798828125	1111.914672851562	44.02591705322266	-1018.567077636719	743.5799560546875	-22.10636901855469	-1002.563293457031	818.4937133789062	8.719696044921875	-1058.5771484375	813.5554809570312	58.23096084594727	-1129.740966796875	1722.696533203125	-163.0942840576172	-966.716552734375	1732.769165039062	-298.3166809082031	-958.1790161132812	1735.37109375	-200.1428833007812	-1148.996459960938	1723.517822265625	-306.2820434570312	-1132.7509765625	966.4583740234375	-414.4676208496094	-1102.662719726562	957.9315795898438	-41.30926132202148	-1000.783142089844	988.43603515625	-120.2765426635742	-1010.902770996094	1007.990417480469	-353.6693725585938	-1102.310180664062	520.3790283203125	-382.4092102050781	-1123.115356445312	657.8904418945312	-412.3613586425781	-1214.198974609375	41.07914352416992	-392.8324584960938	-1191.827270507812	291.6524963378906	-403.5221862792969	-995.0692138671875	41.80732345581055	-323.1027221679688	-1055.523193359375	51.19588470458984	-308.0306091308594	-1088.454711914062	38.69230651855469	-409.8123474121094	-1284.197143554688	48.21155166625977	-340.3925170898438	-1111.759033203125	522.0868530273438	-108.4662399291992	-1084.514770507812	787.8247680664062	-51.02048492431641	-1246.18408203125	45.5178108215332	-149.4916381835938	-1142.81396484375	398.9038391113281	-112.0419616699219	-1013.7314453125	45.91563415527344	-183.8940124511719	-1075.63818359375	50.96530914306641	-215.9319915771484	-1097.423583984375	45.08551406860352	-120.9342651367188	-1300.59912109375	46.15935134887695	-197.5244445800781	
